<?xml version="1.0" standalone="no"?>
<svg xmlns="http://www.w3.org/2000/svg" xmlns:xlink="http://www.w3.org/1999/xlink" width="1672pt" height="404pt" viewBox="0.00 0.00 1672.31 404.00">
<g id="graph0" class="graph" transform="translate(47.19905178710951,327.0678722907373) scale(1.2311444133449168)" data-name="G">

<polygon fill="white" stroke="none" points="-4,4 -4,-400 1668.31,-400 1668.31,4 -4,4"/>
<!-- ManageableVault -->
<g id="node1" class="node" pointer-events="visible" data-name="ManageableVault">

<ellipse fill="none" stroke="rgb(229,229,229)" cx="1250.56" cy="-306" rx="79.85" ry="18"/>
<text text-anchor="middle" x="1250.56" y="-301.8" font-family="Times,serif" font-size="14.00">ManageableVault</text>
</g>
<!-- Greenlistable -->
<g id="node2" class="node" pointer-events="visible" data-name="Greenlistable">

<ellipse fill="none" stroke="rgb(229,229,229)" cx="1268.56" cy="-234" rx="62.54" ry="18"/>
<text text-anchor="middle" x="1268.56" y="-229.8" font-family="Times,serif" font-size="14.00">Greenlistable</text>
</g>
<!-- ManageableVault&#45;&gt;Greenlistable -->
<g id="edge1" class="edge" data-name="ManageableVault-&gt;Greenlistable">

<path fill="none" stroke="rgb(229,229,229)" d="M1255.01,-287.7C1256.91,-280.32 1259.17,-271.52 1261.3,-263.25"/>
<polygon fill="rgb(229,229,229)" stroke="rgb(229,229,229)" points="1264.68,-264.13 1263.78,-253.57 1257.9,-262.38 1264.68,-264.13"/>
</g>
<!-- Pausable -->
<g id="node3" class="node" pointer-events="visible" data-name="Pausable">

<ellipse fill="none" stroke="rgb(229,229,229)" cx="1142.56" cy="-234" rx="45.23" ry="18"/>
<text text-anchor="middle" x="1142.56" y="-229.8" font-family="Times,serif" font-size="14.00">Pausable</text>
</g>
<!-- ManageableVault&#45;&gt;Pausable -->
<g id="edge2" class="edge" data-name="ManageableVault-&gt;Pausable">

<path fill="none" stroke="rgb(229,229,229)" d="M1225.24,-288.59C1210.27,-278.88 1191.15,-266.49 1175.07,-256.07"/>
<polygon fill="rgb(229,229,229)" stroke="rgb(229,229,229)" points="1177.08,-253.2 1166.78,-250.7 1173.27,-259.08 1177.08,-253.2"/>
</g>
<!-- IManageableVault -->
<g id="node4" class="node" pointer-events="visible" data-name="IManageableVault">

<ellipse fill="none" stroke="rgb(229,229,229)" cx="1431.56" cy="-234" rx="82.79" ry="18"/>
<text text-anchor="middle" x="1431.56" y="-229.8" font-family="Times,serif" font-size="14.00">IManageableVault</text>
</g>
<!-- ManageableVault&#45;&gt;IManageableVault -->
<g id="edge3" class="edge" data-name="ManageableVault-&gt;IManageableVault">

<path fill="none" stroke="rgb(229,229,229)" d="M1289.39,-289.98C1316.4,-279.54 1352.65,-265.52 1381.79,-254.25"/>
<polygon fill="rgb(229,229,229)" stroke="rgb(229,229,229)" points="1382.69,-257.65 1390.76,-250.78 1380.17,-251.12 1382.69,-257.65"/>
</g>
<!-- WithMidasAccessControl -->
<g id="node14" class="node" pointer-events="visible" data-name="WithMidasAccessControl">

<ellipse fill="none" stroke="black" cx="1256.56" cy="-162" rx="111.19" ry="18"/>
<text text-anchor="middle" x="1256.56" y="-157.8" font-family="Times,serif" font-size="14.00">WithMidasAccessControl</text>
</g>
<!-- Greenlistable&#45;&gt;WithMidasAccessControl -->
<g id="edge28" class="edge" data-name="Greenlistable-&gt;WithMidasAccessControl">

<path fill="none" stroke="rgb(229,229,229)" d="M1265.59,-215.7C1264.33,-208.32 1262.82,-199.52 1261.4,-191.25"/>
<polygon fill="rgb(229,229,229)" stroke="rgb(229,229,229)" points="1264.89,-190.86 1259.75,-181.6 1257.99,-192.04 1264.89,-190.86"/>
</g>
<!-- PausableUpgradeable -->
<g id="node12" class="node" pointer-events="visible" data-name="PausableUpgradeable">

<ellipse fill="none" stroke="black" cx="579.56" cy="-162" rx="94.89" ry="18"/>
<text text-anchor="middle" x="579.56" y="-157.8" font-family="Times,serif" font-size="14.00">PausableUpgradeable</text>
</g>
<!-- Pausable&#45;&gt;PausableUpgradeable -->
<g id="edge30" class="edge" data-name="Pausable-&gt;PausableUpgradeable">

<path fill="none" stroke="rgb(229,229,229)" d="M1109.1,-221.48C1102.05,-219.39 1094.61,-217.42 1087.56,-216 926.89,-183.64 883.48,-197.81 720.56,-180 703.67,-178.15 685.66,-176.07 668.35,-174.01"/>
<polygon fill="rgb(229,229,229)" stroke="rgb(229,229,229)" points="668.94,-170.56 658.6,-172.84 668.11,-177.51 668.94,-170.56"/>
</g>
<!-- Pausable&#45;&gt;WithMidasAccessControl -->
<g id="edge29" class="edge" data-name="Pausable-&gt;WithMidasAccessControl">

<path fill="none" stroke="rgb(229,229,229)" d="M1166.46,-218.33C1181.88,-208.85 1202.26,-196.34 1219.73,-185.62"/>
<polygon fill="rgb(229,229,229)" stroke="rgb(229,229,229)" points="1221.11,-188.88 1227.8,-180.66 1217.44,-182.91 1221.11,-188.88"/>
</g>
<!-- IERC20Upgradeable -->
<g id="node5" class="node" pointer-events="visible" data-name="IERC20Upgradeable">

<ellipse fill="none" stroke="black" cx="142.56" cy="-18" rx="92.04" ry="18"/>
<text text-anchor="middle" x="142.56" y="-13.8" font-family="Times,serif" font-size="14.00">IERC20Upgradeable</text>
</g>
<!-- IERC20MetadataUpgradeable -->
<g id="node6" class="node" pointer-events="visible" data-name="IERC20MetadataUpgradeable">

<ellipse fill="none" stroke="black" cx="142.56" cy="-90" rx="127.9" ry="18"/>
<text text-anchor="middle" x="142.56" y="-85.8" font-family="Times,serif" font-size="14.00">IERC20MetadataUpgradeable</text>
</g>
<!-- IERC20MetadataUpgradeable&#45;&gt;IERC20Upgradeable -->
<g id="edge4" class="edge" data-name="IERC20MetadataUpgradeable-&gt;IERC20Upgradeable">

<path fill="none" stroke="black" d="M142.56,-71.7C142.56,-64.41 142.56,-55.73 142.56,-47.54"/>
<polygon fill="black" stroke="black" points="146.06,-47.62 142.56,-37.62 139.06,-47.62 146.06,-47.62"/>
</g>
<!-- SafeERC20Upgradeable -->

<!-- IERC20PermitUpgradeable -->

<!-- AddressUpgradeable -->

<!-- EnumerableSetUpgradeable -->

<!-- IMTbill -->
<g id="node7" class="node" pointer-events="visible" data-name="IMTbill">

<ellipse fill="none" stroke="black" cx="48.56" cy="-162" rx="41.73" ry="18"/>
<text text-anchor="middle" x="48.56" y="-157.8" font-family="Times,serif" font-size="14.00">IMTbill</text>
</g>
<!-- IMTbill&#45;&gt;IERC20Upgradeable -->
<g id="edge5" class="edge" data-name="IMTbill-&gt;IERC20Upgradeable">

<path fill="none" stroke="black" d="M31.36,-145.44C13.16,-127.05 -10.84,-95.92 5.56,-72 18.45,-53.19 39.04,-41.06 60.39,-33.23"/>
<polygon fill="black" stroke="black" points="61.42,-36.58 69.8,-30.1 59.21,-29.93 61.42,-36.58"/>
</g>
<!-- IDataFeed -->
<g id="node8" class="node" pointer-events="visible" data-name="IDataFeed">

<ellipse fill="none" stroke="rgb(229,229,229)" cx="1580.56" cy="-162" rx="51.01" ry="18"/>
<text text-anchor="middle" x="1580.56" y="-157.8" font-family="Times,serif" font-size="14.00">IDataFeed</text>
</g>
<!-- ERC20PausableUpgradeable -->
<g id="node9" class="node" pointer-events="visible" data-name="ERC20PausableUpgradeable">

<ellipse fill="none" stroke="black" cx="374.56" cy="-234" rx="123.27" ry="18"/>
<text text-anchor="middle" x="374.56" y="-229.8" font-family="Times,serif" font-size="14.00">ERC20PausableUpgradeable</text>
</g>
<!-- Initializable -->
<g id="node10" class="node" pointer-events="visible" data-name="Initializable">

<ellipse fill="none" stroke="black" cx="612.56" cy="-18" rx="57.3" ry="18"/>
<text text-anchor="middle" x="612.56" y="-13.8" font-family="Times,serif" font-size="14.00">Initializable</text>
</g>
<!-- ERC20PausableUpgradeable&#45;&gt;Initializable -->
<g id="edge6" class="edge" data-name="ERC20PausableUpgradeable-&gt;Initializable">

<path fill="none" stroke="black" d="M370.85,-215.68C364.98,-183.15 357.61,-112.54 393.56,-72 413.85,-49.12 491.02,-34.42 548.04,-26.44"/>
<polygon fill="black" stroke="black" points="548.22,-29.95 557.65,-25.14 547.28,-23.01 548.22,-29.95"/>
</g>
<!-- ERC20Upgradeable -->
<g id="node11" class="node" pointer-events="visible" data-name="ERC20Upgradeable">

<ellipse fill="none" stroke="black" cx="257.56" cy="-162" rx="88.61" ry="18"/>
<text text-anchor="middle" x="257.56" y="-157.8" font-family="Times,serif" font-size="14.00">ERC20Upgradeable</text>
</g>
<!-- ERC20PausableUpgradeable&#45;&gt;ERC20Upgradeable -->
<g id="edge7" class="edge" data-name="ERC20PausableUpgradeable-&gt;ERC20Upgradeable">

<path fill="none" stroke="black" d="M346.24,-216.05C330.75,-206.79 311.37,-195.19 294.68,-185.21"/>
<polygon fill="black" stroke="black" points="296.89,-182.46 286.52,-180.32 293.3,-188.46 296.89,-182.46"/>
</g>
<!-- ERC20PausableUpgradeable&#45;&gt;PausableUpgradeable -->
<g id="edge8" class="edge" data-name="ERC20PausableUpgradeable-&gt;PausableUpgradeable">

<path fill="none" stroke="black" d="M421.59,-216.94C452.18,-206.5 492.19,-192.83 524.3,-181.87"/>
<polygon fill="black" stroke="black" points="525.09,-185.3 533.42,-178.75 522.83,-178.67 525.09,-185.3"/>
</g>
<!-- ERC20Upgradeable&#45;&gt;IERC20Upgradeable -->
<g id="edge11" class="edge" data-name="ERC20Upgradeable-&gt;IERC20Upgradeable">

<path fill="none" stroke="black" d="M269.34,-143.82C280.81,-124.75 294.5,-93.79 279.56,-72 266.67,-53.19 246.08,-41.06 224.73,-33.23"/>
<polygon fill="black" stroke="black" points="225.91,-29.93 215.32,-30.1 223.7,-36.58 225.91,-29.93"/>
</g>
<!-- ERC20Upgradeable&#45;&gt;IERC20MetadataUpgradeable -->
<g id="edge12" class="edge" data-name="ERC20Upgradeable-&gt;IERC20MetadataUpgradeable">

<path fill="none" stroke="black" d="M230.31,-144.41C215.34,-135.3 196.56,-123.87 180.22,-113.92"/>
<polygon fill="black" stroke="black" points="182.07,-110.95 171.71,-108.74 178.43,-116.93 182.07,-110.95"/>
</g>
<!-- ERC20Upgradeable&#45;&gt;Initializable -->
<g id="edge9" class="edge" data-name="ERC20Upgradeable-&gt;Initializable">

<path fill="none" stroke="black" d="M272.11,-144.01C290.56,-123.62 324.35,-89.94 360.56,-72 419.16,-42.97 493.06,-29.81 545.65,-23.87"/>
<polygon fill="black" stroke="black" points="545.79,-27.37 555.36,-22.83 545.05,-20.41 545.79,-27.37"/>
</g>
<!-- ContextUpgradeable -->
<g id="node13" class="node" pointer-events="visible" data-name="ContextUpgradeable">

<ellipse fill="none" stroke="black" cx="493.56" cy="-90" rx="90.89" ry="18"/>
<text text-anchor="middle" x="493.56" y="-85.8" font-family="Times,serif" font-size="14.00">ContextUpgradeable</text>
</g>
<!-- ERC20Upgradeable&#45;&gt;ContextUpgradeable -->
<g id="edge10" class="edge" data-name="ERC20Upgradeable-&gt;ContextUpgradeable">

<path fill="none" stroke="black" d="M306.17,-146.58C343.17,-135.61 394.29,-120.44 433.79,-108.73"/>
<polygon fill="black" stroke="black" points="434.56,-112.15 443.15,-105.95 432.57,-105.44 434.56,-112.15"/>
</g>
<!-- PausableUpgradeable&#45;&gt;Initializable -->
<g id="edge14" class="edge" data-name="PausableUpgradeable-&gt;Initializable">

<path fill="none" stroke="black" d="M584.31,-143.87C587.12,-133.51 590.69,-120.03 593.56,-108 598.36,-87.9 603.21,-65.1 606.81,-47.61"/>
<polygon fill="black" stroke="black" points="610.22,-48.43 608.79,-37.93 603.36,-47.03 610.22,-48.43"/>
</g>
<!-- PausableUpgradeable&#45;&gt;ContextUpgradeable -->
<g id="edge15" class="edge" data-name="PausableUpgradeable-&gt;ContextUpgradeable">

<path fill="none" stroke="black" d="M558.74,-144.05C547.97,-135.28 534.63,-124.43 522.84,-114.83"/>
<polygon fill="black" stroke="black" points="525.32,-112.34 515.36,-108.74 520.91,-117.77 525.32,-112.34"/>
</g>
<!-- ContextUpgradeable&#45;&gt;Initializable -->
<g id="edge13" class="edge" data-name="ContextUpgradeable-&gt;Initializable">

<path fill="none" stroke="black" d="M521.76,-72.41C538.19,-62.75 559.08,-50.46 576.67,-40.11"/>
<polygon fill="black" stroke="black" points="578.44,-43.13 585.29,-35.04 574.9,-37.09 578.44,-43.13"/>
</g>
<!-- AggregatorV3Interface -->

<!-- MidasInitializable -->
<g id="node15" class="node" pointer-events="visible" data-name="MidasInitializable">

<ellipse fill="none" stroke="black" cx="1223.56" cy="-90" rx="81.09" ry="18"/>
<text text-anchor="middle" x="1223.56" y="-85.8" font-family="Times,serif" font-size="14.00">MidasInitializable</text>
</g>
<!-- WithMidasAccessControl&#45;&gt;MidasInitializable -->
<g id="edge16" class="edge" data-name="WithMidasAccessControl-&gt;MidasInitializable">

<path fill="none" stroke="black" d="M1248.4,-143.7C1244.81,-136.07 1240.49,-126.92 1236.47,-118.4"/>
<polygon fill="black" stroke="black" points="1239.7,-117.03 1232.27,-109.47 1233.37,-120.01 1239.7,-117.03"/>
</g>
<!-- MidasAccessControlRoles -->
<g id="node16" class="node" pointer-events="visible" data-name="MidasAccessControlRoles">

<ellipse fill="none" stroke="black" cx="1436.56" cy="-90" rx="114.07" ry="18"/>
<text text-anchor="middle" x="1436.56" y="-85.8" font-family="Times,serif" font-size="14.00">MidasAccessControlRoles</text>
</g>
<!-- WithMidasAccessControl&#45;&gt;MidasAccessControlRoles -->
<g id="edge17" class="edge" data-name="WithMidasAccessControl-&gt;MidasAccessControlRoles">

<path fill="none" stroke="black" d="M1297.86,-144.94C1323.51,-134.96 1356.72,-122.05 1384.22,-111.36"/>
<polygon fill="black" stroke="black" points="1385.37,-114.66 1393.42,-107.78 1382.83,-108.14 1385.37,-114.66"/>
</g>
<!-- MidasInitializable&#45;&gt;Initializable -->
<g id="edge27" class="edge" data-name="MidasInitializable-&gt;Initializable">

<path fill="none" stroke="black" d="M1165.1,-77.21C1154.62,-75.31 1143.79,-73.48 1133.56,-72 971.06,-48.43 778.54,-31.74 679.24,-23.95"/>
<polygon fill="black" stroke="black" points="679.64,-20.47 669.39,-23.19 679.09,-27.45 679.64,-20.47"/>
</g>
<!-- MidasAccessControl -->
<g id="node17" class="node" pointer-events="visible" data-name="MidasAccessControl">

<ellipse fill="none" stroke="rgb(229,229,229)" cx="846.56" cy="-234" rx="92.07" ry="18"/>
<text text-anchor="middle" x="846.56" y="-229.8" font-family="Times,serif" font-size="14.00">MidasAccessControl</text>
</g>
<!-- MidasAccessControl&#45;&gt;MidasInitializable -->
<g id="edge19" class="edge" data-name="MidasAccessControl-&gt;MidasInitializable">

<path fill="none" stroke="rgb(229,229,229)" d="M886.72,-217.37C932.92,-199.44 1011.09,-169.27 1078.56,-144 1109.36,-132.46 1143.95,-119.81 1171.62,-109.76"/>
<polygon fill="rgb(229,229,229)" stroke="rgb(229,229,229)" points="1172.61,-113.12 1180.82,-106.42 1170.23,-106.54 1172.61,-113.12"/>
</g>
<!-- MidasAccessControl&#45;&gt;MidasAccessControlRoles -->
<g id="edge20" class="edge" data-name="MidasAccessControl-&gt;MidasAccessControlRoles">

<path fill="none" stroke="rgb(229,229,229)" d="M905.06,-219.81C945.71,-210.12 1000.93,-195.91 1048.56,-180 1088.64,-166.61 1095.97,-155.74 1136.56,-144 1174.8,-132.94 1271.79,-116.56 1345.22,-104.94"/>
<polygon fill="rgb(229,229,229)" stroke="rgb(229,229,229)" points="1345.5,-108.44 1354.83,-103.43 1344.41,-101.53 1345.5,-108.44"/>
</g>
<!-- AccessControlUpgradeable -->
<g id="node18" class="node" pointer-events="visible" data-name="AccessControlUpgradeable">

<ellipse fill="none" stroke="rgb(229,229,229)" cx="846.56" cy="-162" rx="117.45" ry="18"/>
<text text-anchor="middle" x="846.56" y="-157.8" font-family="Times,serif" font-size="14.00">AccessControlUpgradeable</text>
</g>
<!-- MidasAccessControl&#45;&gt;AccessControlUpgradeable -->
<g id="edge18" class="edge" data-name="MidasAccessControl-&gt;AccessControlUpgradeable">

<path fill="none" stroke="rgb(229,229,229)" d="M846.56,-215.7C846.56,-208.41 846.56,-199.73 846.56,-191.54"/>
<polygon fill="rgb(229,229,229)" stroke="rgb(229,229,229)" points="850.06,-191.62 846.56,-181.62 843.06,-191.62 850.06,-191.62"/>
</g>
<!-- AccessControlUpgradeable&#45;&gt;Initializable -->
<g id="edge21" class="edge" data-name="AccessControlUpgradeable-&gt;Initializable">

<path fill="none" stroke="rgb(229,229,229)" d="M865.5,-143.87C884.24,-124.86 907.71,-93.95 889.56,-72 863.54,-40.52 753.8,-27.56 680.5,-22.35"/>
<polygon fill="rgb(229,229,229)" stroke="rgb(229,229,229)" points="680.79,-18.87 670.58,-21.69 680.32,-25.85 680.79,-18.87"/>
</g>
<!-- AccessControlUpgradeable&#45;&gt;ContextUpgradeable -->
<g id="edge22" class="edge" data-name="AccessControlUpgradeable-&gt;ContextUpgradeable">

<path fill="none" stroke="rgb(229,229,229)" d="M776.82,-147.17C716.29,-135.17 628.93,-117.84 567.26,-105.62"/>
<polygon fill="rgb(229,229,229)" stroke="rgb(229,229,229)" points="568.03,-102.2 557.54,-103.69 566.67,-109.07 568.03,-102.2"/>
</g>
<!-- IAccessControlUpgradeable -->
<g id="node19" class="node" pointer-events="visible" data-name="IAccessControlUpgradeable">

<ellipse fill="none" stroke="rgb(229,229,229)" cx="760.56" cy="-90" rx="120.38" ry="18"/>
<text text-anchor="middle" x="760.56" y="-85.8" font-family="Times,serif" font-size="14.00">IAccessControlUpgradeable</text>
</g>
<!-- AccessControlUpgradeable&#45;&gt;IAccessControlUpgradeable -->
<g id="edge23" class="edge" data-name="AccessControlUpgradeable-&gt;IAccessControlUpgradeable">

<path fill="none" stroke="rgb(229,229,229)" d="M825.74,-144.05C815.05,-135.35 801.83,-124.59 790.1,-115.04"/>
<polygon fill="rgb(229,229,229)" stroke="rgb(229,229,229)" points="792.62,-112.59 782.66,-108.99 788.2,-118.01 792.62,-112.59"/>
</g>
<!-- ERC165Upgradeable -->
<g id="node20" class="node" pointer-events="visible" data-name="ERC165Upgradeable">

<ellipse fill="none" stroke="rgb(229,229,229)" cx="1030.56" cy="-90" rx="93.77" ry="18"/>
<text text-anchor="middle" x="1030.56" y="-85.8" font-family="Times,serif" font-size="14.00">ERC165Upgradeable</text>
</g>
<!-- AccessControlUpgradeable&#45;&gt;ERC165Upgradeable -->
<g id="edge24" class="edge" data-name="AccessControlUpgradeable-&gt;ERC165Upgradeable">

<path fill="none" stroke="rgb(229,229,229)" d="M889.24,-144.76C916.06,-134.56 950.84,-121.33 979.18,-110.55"/>
<polygon fill="rgb(229,229,229)" stroke="rgb(229,229,229)" points="980.18,-113.91 988.28,-107.08 977.69,-107.37 980.18,-113.91"/>
</g>
<!-- ERC165Upgradeable&#45;&gt;Initializable -->
<g id="edge25" class="edge" data-name="ERC165Upgradeable-&gt;Initializable">

<path fill="none" stroke="rgb(229,229,229)" d="M961.54,-77.44C881.2,-63.99 749.79,-41.98 673.22,-29.16"/>
<polygon fill="rgb(229,229,229)" stroke="rgb(229,229,229)" points="674.26,-25.78 663.82,-27.58 673.11,-32.69 674.26,-25.78"/>
</g>
<!-- IERC165Upgradeable -->
<g id="node21" class="node" pointer-events="visible" data-name="IERC165Upgradeable">

<ellipse fill="none" stroke="rgb(229,229,229)" cx="1030.56" cy="-18" rx="96.7" ry="18"/>
<text text-anchor="middle" x="1030.56" y="-13.8" font-family="Times,serif" font-size="14.00">IERC165Upgradeable</text>
</g>
<!-- ERC165Upgradeable&#45;&gt;IERC165Upgradeable -->
<g id="edge26" class="edge" data-name="ERC165Upgradeable-&gt;IERC165Upgradeable">

<path fill="none" stroke="rgb(229,229,229)" d="M1030.56,-71.7C1030.56,-64.41 1030.56,-55.73 1030.56,-47.54"/>
<polygon fill="rgb(229,229,229)" stroke="rgb(229,229,229)" points="1034.06,-47.62 1030.56,-37.62 1027.06,-47.62 1034.06,-47.62"/>
</g>
<!-- StringsUpgradeable -->

<!-- MathUpgradeable -->

<!-- SignedMathUpgradeable -->

<!-- DecimalsCorrectionLibrary -->

<!-- DataFeed -->
<g id="node22" class="node" pointer-events="visible" data-name="DataFeed">

<ellipse fill="none" stroke="rgb(229,229,229)" cx="1580.56" cy="-234" rx="48.08" ry="18"/>
<text text-anchor="middle" x="1580.56" y="-229.8" font-family="Times,serif" font-size="14.00">DataFeed</text>
</g>
<!-- DataFeed&#45;&gt;IDataFeed -->
<g id="edge32" class="edge" data-name="DataFeed-&gt;IDataFeed">

<path fill="none" stroke="rgb(229,229,229)" d="M1580.56,-215.7C1580.56,-208.41 1580.56,-199.73 1580.56,-191.54"/>
<polygon fill="rgb(229,229,229)" stroke="rgb(229,229,229)" points="1584.06,-191.62 1580.56,-181.62 1577.06,-191.62 1584.06,-191.62"/>
</g>
<!-- DataFeed&#45;&gt;WithMidasAccessControl -->
<g id="edge31" class="edge" data-name="DataFeed-&gt;WithMidasAccessControl">

<path fill="none" stroke="rgb(229,229,229)" d="M1544.52,-221.69C1537.59,-219.68 1530.38,-217.69 1523.56,-216 1463.3,-201.07 1394.58,-187.51 1341.95,-177.84"/>
<polygon fill="rgb(229,229,229)" stroke="rgb(229,229,229)" points="1342.59,-174.4 1332.12,-176.05 1341.33,-181.28 1342.59,-174.4"/>
</g>
<!-- DepositVault -->
<g id="node23" class="node" pointer-events="visible" data-name="DepositVault">

<ellipse fill="none" stroke="rgb(229,229,229)" cx="1549.56" cy="-378" rx="62.56" ry="18"/>
<text text-anchor="middle" x="1549.56" y="-373.8" font-family="Times,serif" font-size="14.00">DepositVault</text>
</g>
<!-- DepositVault&#45;&gt;ManageableVault -->
<g id="edge33" class="edge" data-name="DepositVault-&gt;ManageableVault">

<path fill="none" stroke="rgb(229,229,229)" d="M1502.18,-365.91C1451.78,-354.11 1371.71,-335.36 1315.46,-322.19"/>
<polygon fill="rgb(229,229,229)" stroke="rgb(229,229,229)" points="1316.55,-318.85 1306.02,-319.98 1314.95,-325.67 1316.55,-318.85"/>
</g>
<!-- IDepositVault -->
<g id="node24" class="node" pointer-events="visible" data-name="IDepositVault">

<ellipse fill="none" stroke="rgb(229,229,229)" cx="1598.56" cy="-306" rx="66" ry="18"/>
<text text-anchor="middle" x="1598.56" y="-301.8" font-family="Times,serif" font-size="14.00">IDepositVault</text>
</g><g id="edge41" class="edge" data-name="mTBILL-&gt;IMTbill" data-comment="IDepositVault">

<path fill="none" stroke="black" d="M342.64,-292.68C315.8,-282.21 276.48,-266.58 242.56,-252 187.64,-228.39 124.89,-199.19 85.99,-180.83"/>
<polygon fill="black" stroke="black" points="87.59,-177.71 77.05,-176.59 84.59,-184.03 87.59,-177.71"/>
</g>
<!-- DepositVault&#45;&gt;IDepositVault -->
<g id="edge34" class="edge" data-name="DepositVault-&gt;IDepositVault">

<path fill="none" stroke="rgb(229,229,229)" d="M1561.42,-360.05C1567.08,-351.97 1573.97,-342.12 1580.28,-333.11"/>
<polygon fill="rgb(229,229,229)" stroke="rgb(229,229,229)" points="1583.07,-335.23 1585.94,-325.03 1577.34,-331.21 1583.07,-335.23"/>
</g>
<!-- IDepositVault&#45;&gt;IManageableVault -->
<g id="edge35" class="edge" data-name="IDepositVault-&gt;IManageableVault">

<path fill="none" stroke="rgb(229,229,229)" d="M1563.55,-290.33C1538.98,-280.03 1505.84,-266.13 1478.91,-254.85"/>
<polygon fill="rgb(229,229,229)" stroke="rgb(229,229,229)" points="1480.52,-251.73 1469.94,-251.09 1477.81,-258.18 1480.52,-251.73"/>
</g>
<!-- Counters -->

<!-- DataFeedTest -->

<g id="node25" class="node" pointer-events="visible" data-name="RedemptionVault" data-comment="DataFeedTest">

<ellipse fill="none" stroke="rgb(229,229,229)" cx="1340.56" cy="-378" rx="79.89" ry="18"/>
<text text-anchor="middle" x="1340.56" y="-373.8" font-family="Times,serif" font-size="14.00">RedemptionVault</text>
</g><g id="edge36" class="edge" data-name="RedemptionVault-&gt;ManageableVault" data-comment="DataFeedTest">

<path fill="none" stroke="rgb(229,229,229)" d="M1319.23,-360.41C1307.77,-351.5 1293.44,-340.36 1280.85,-330.56"/>
<polygon fill="rgb(229,229,229)" stroke="rgb(229,229,229)" points="1283.28,-328.02 1273.24,-324.64 1278.99,-333.54 1283.28,-328.02"/>
</g><g id="node26" class="node" pointer-events="visible" data-name="IRedemptionVault" data-comment="DataFeedTest">

<ellipse fill="none" stroke="rgb(229,229,229)" cx="1431.56" cy="-306" rx="82.82" ry="18"/>
<text text-anchor="middle" x="1431.56" y="-301.8" font-family="Times,serif" font-size="14.00">IRedemptionVault</text>
</g><g id="edge37" class="edge" data-name="RedemptionVault-&gt;IRedemptionVault" data-comment="DataFeedTest">

<path fill="none" stroke="rgb(229,229,229)" d="M1362.13,-360.41C1373.71,-351.5 1388.2,-340.36 1400.93,-330.56"/>
<polygon fill="rgb(229,229,229)" stroke="rgb(229,229,229)" points="1402.84,-333.51 1408.63,-324.64 1398.57,-327.96 1402.84,-333.51"/>
</g><g id="edge38" class="edge" data-name="IRedemptionVault-&gt;IManageableVault" data-comment="DataFeedTest">

<path fill="none" stroke="rgb(229,229,229)" d="M1431.56,-287.7C1431.56,-280.41 1431.56,-271.73 1431.56,-263.54"/>
<polygon fill="rgb(229,229,229)" stroke="rgb(229,229,229)" points="1435.06,-263.62 1431.56,-253.62 1428.06,-263.62 1435.06,-263.62"/>
</g><g id="node27" class="node" pointer-events="visible" data-name="mTBILL" data-comment="DataFeedTest">

<ellipse fill="none" stroke="black" cx="374.56" cy="-306" rx="45.8" ry="18"/>
<text text-anchor="middle" x="374.56" y="-301.8" font-family="Times,serif" font-size="14.00">mTBILL</text>
</g><g id="edge39" class="edge" data-name="mTBILL-&gt;ERC20PausableUpgradeable" data-comment="DataFeedTest">

<path fill="none" stroke="black" d="M374.56,-287.7C374.56,-280.41 374.56,-271.73 374.56,-263.54"/>
<polygon fill="black" stroke="black" points="378.06,-263.62 374.56,-253.62 371.06,-263.62 378.06,-263.62"/>
</g><g id="node28" class="node" pointer-events="visible" data-name="Blacklistable" data-comment="DataFeedTest">

<ellipse fill="none" stroke="black" cx="1017.56" cy="-234" rx="61.41" ry="18"/>
<text text-anchor="middle" x="1017.56" y="-229.8" font-family="Times,serif" font-size="14.00">Blacklistable</text>
</g><g id="edge40" class="edge" data-name="mTBILL-&gt;Blacklistable" data-comment="DataFeedTest">

<path fill="none" stroke="black" d="M420.16,-303.05C517.57,-298.38 752.94,-284.46 947.56,-252 952.41,-251.19 957.42,-250.23 962.43,-249.18"/>
<polygon fill="black" stroke="black" points="962.84,-252.68 971.85,-247.1 961.33,-245.84 962.84,-252.68"/>
</g><g id="edge42" class="edge" data-name="Blacklistable-&gt;WithMidasAccessControl" data-comment="DataFeedTest">

<path fill="none" stroke="black" d="M1060.01,-220.57C1097.08,-209.71 1151.38,-193.81 1193.52,-181.46"/>
<polygon fill="black" stroke="black" points="1194.44,-184.84 1203.05,-178.67 1192.47,-178.12 1194.44,-184.84"/>
</g></g>
</svg>